<?xml version="1.0" encoding="utf-8"?>
<!-- Generator: Adobe Illustrator 16.0.4, SVG Export Plug-In . SVG Version: 6.00 Build 0)  -->
<!DOCTYPE svg PUBLIC "-//W3C//DTD SVG 1.1//EN" "http://www.w3.org/Graphics/SVG/1.1/DTD/svg11.dtd">
<svg version="1.1" id="Layer_1" xmlns="http://www.w3.org/2000/svg" xmlns:xlink="http://www.w3.org/1999/xlink" x="0px" y="0px"
	 width="111.411px" height="26.004px" viewBox="0 0 111.411 26.004" enable-background="new 0 0 111.411 26.004"
	 xml:space="preserve">
<g>
	<g>
		<defs>
			<rect id="SVGID_1_" width="107.657" height="26.004"/>
		</defs>
		<clipPath id="SVGID_2_">
			<use xlink:href="#SVGID_1_"  overflow="visible"/>
		</clipPath>
		<path clip-path="url(#SVGID_2_)" fill="#00BCF1" d="M26.005,13.002c0-3.878-1.622-7.408-4.339-9.809v9.809
			c0,4.784-3.233,8.913-8.664,8.913s-8.665-4.129-8.665-8.913c0-4.784,3.235-8.912,8.666-8.912c1.659,0,3.111,0.389,4.331,1.062
			V0.696C15.999,0.248,14.547,0,13.003,0C5.39,0,0,5.927,0,13.002c0,7.075,5.39,13.002,13.003,13.002
			C20.614,26.004,26.005,20.079,26.005,13.002"/>
	</g>
	<g>
		<defs>
			<rect id="SVGID_3_" width="107.657" height="26.004"/>
		</defs>
		<clipPath id="SVGID_4_">
			<use xlink:href="#SVGID_3_"  overflow="visible"/>
		</clipPath>
		<path clip-path="url(#SVGID_4_)" fill="#00BCF1" d="M17.334,13.002c0,2.391-1.617,4.456-4.332,4.456S8.67,15.393,8.67,13.002
			s1.617-4.456,4.332-4.456S17.334,10.611,17.334,13.002"/>
	</g>
	<g>
		<defs>
			<rect id="SVGID_5_" width="107.657" height="26.004"/>
		</defs>
		<clipPath id="SVGID_6_">
			<use xlink:href="#SVGID_5_"  overflow="visible"/>
		</clipPath>
	</g>
</g>
<g>
	<g>
		<defs>
			<rect id="SVGID_7_" width="107.657" height="26.004"/>
		</defs>
		<clipPath id="SVGID_8_">
			<use xlink:href="#SVGID_7_"  overflow="visible"/>
		</clipPath>
	</g>
	<g>
		<defs>
			<rect id="SVGID_9_" width="107.657" height="26.004"/>
		</defs>
		<clipPath id="SVGID_10_">
			<use xlink:href="#SVGID_9_"  overflow="visible"/>
		</clipPath>
	</g>
	<g>
		<defs>
			<rect id="SVGID_11_" width="107.657" height="26.004"/>
		</defs>
		<clipPath id="SVGID_12_">
			<use xlink:href="#SVGID_11_"  overflow="visible"/>
		</clipPath>
	</g>
	<g>
		<defs>
			<rect id="SVGID_13_" width="107.657" height="26.004"/>
		</defs>
		<clipPath id="SVGID_14_">
			<use xlink:href="#SVGID_13_"  overflow="visible"/>
		</clipPath>
	</g>
	<g>
		<defs>
			<rect id="SVGID_15_" width="107.657" height="26.004"/>
		</defs>
		<clipPath id="SVGID_16_">
			<use xlink:href="#SVGID_15_"  overflow="visible"/>
		</clipPath>
	</g>
</g>
<g>
	<g>
		<defs>
			<rect id="SVGID_17_" width="107.657" height="26.004"/>
		</defs>
		<clipPath id="SVGID_18_">
			<use xlink:href="#SVGID_17_"  overflow="visible"/>
		</clipPath>
	</g>
	<g>
		<defs>
			<rect id="SVGID_19_" width="107.657" height="26.004"/>
		</defs>
		<clipPath id="SVGID_20_">
			<use xlink:href="#SVGID_19_"  overflow="visible"/>
		</clipPath>
	</g>
</g>
<g>
</g>
<g>
</g>
<g>
	<path fill="#0D93D2" d="M83.023,16.724c-0.291,0-0.539,0.096-0.742,0.285c-0.199,0.188-0.299,0.43-0.299,0.721
		c0,0.219,0.059,0.399,0.176,0.539c0.092,0.11,0.248,0.219,0.473,0.33c0.08,0.037,0.158,0.075,0.237,0.112
		c0.077,0.037,0.155,0.076,0.233,0.114c0.201,0.119,0.303,0.248,0.303,0.386c0,0.238-0.131,0.356-0.392,0.356
		c-0.131,0-0.243-0.044-0.336-0.129c-0.049-0.045-0.117-0.145-0.21-0.306l-0.658,0.306c0.233,0.545,0.631,0.82,1.19,0.82
		c0.326,0,0.606-0.104,0.836-0.311c0.239-0.217,0.358-0.486,0.358-0.809c0-0.251-0.072-0.452-0.212-0.601
		c-0.142-0.149-0.419-0.312-0.828-0.487c-0.298-0.125-0.445-0.252-0.445-0.381c0-0.072,0.024-0.132,0.074-0.179
		c0.05-0.048,0.11-0.071,0.182-0.071c0.149,0,0.273,0.102,0.374,0.307l0.639-0.341C83.767,16.944,83.449,16.724,83.023,16.724
		 M79.546,20.158h0.771v-1.733c0-0.636,0.21-0.953,0.632-0.953c0.14,0,0.282,0.054,0.431,0.157l0.352-0.706
		c-0.222-0.133-0.434-0.198-0.639-0.198c-0.153,0-0.286,0.027-0.397,0.086c-0.109,0.055-0.235,0.157-0.378,0.306v-0.299h-0.771
		V20.158z M76.5,18.037c0.025-0.096,0.062-0.181,0.109-0.257c0.049-0.074,0.107-0.14,0.173-0.192
		c0.068-0.054,0.145-0.096,0.226-0.124c0.082-0.028,0.171-0.044,0.265-0.044c0.411,0,0.672,0.207,0.778,0.617H76.5z M78.846,18.488
		c0-0.553-0.142-0.983-0.426-1.294c-0.285-0.313-0.674-0.472-1.165-0.472c-0.487,0-0.879,0.162-1.175,0.484
		c-0.293,0.327-0.439,0.754-0.439,1.281c0,0.534,0.151,0.962,0.453,1.283c0.302,0.32,0.702,0.481,1.201,0.481
		c0.174,0,0.336-0.019,0.482-0.056c0.149-0.037,0.289-0.095,0.416-0.172c0.127-0.079,0.248-0.181,0.359-0.304
		c0.113-0.122,0.219-0.269,0.319-0.439l-0.65-0.363c-0.158,0.247-0.3,0.417-0.423,0.508c-0.126,0.093-0.285,0.138-0.478,0.138
		c-0.247,0-0.45-0.08-0.607-0.24c-0.158-0.162-0.247-0.381-0.269-0.656h2.396L78.846,18.488z M75.354,17.537v-0.722h-0.601v-1.224
		h-0.771v1.224h-0.329v0.722h0.329v2.621h0.771v-2.621H75.354z M73.292,17.537v-0.722h-0.601v-1.224h-0.771v1.224h-0.331v0.722
		h0.331v2.621h0.771v-2.621H73.292z M68.718,17.721c0.179-0.2,0.4-0.302,0.666-0.302c0.281,0,0.51,0.099,0.686,0.3
		c0.176,0.202,0.264,0.462,0.264,0.772c0,0.314-0.088,0.573-0.264,0.775c-0.176,0.197-0.408,0.297-0.692,0.297
		c-0.269,0-0.489-0.102-0.666-0.306c-0.17-0.2-0.258-0.462-0.258-0.782C68.454,18.176,68.542,17.926,68.718,17.721 M70.286,17.204
		c-0.309-0.319-0.657-0.481-1.046-0.481c-0.451,0-0.825,0.167-1.125,0.501c-0.301,0.335-0.449,0.752-0.449,1.253
		c0,0.51,0.148,0.936,0.449,1.276c0.3,0.334,0.684,0.502,1.146,0.502c0.366,0,0.709-0.149,1.025-0.447v0.351h0.775v-3.343h-0.775
		V17.204z M62.406,20.158h0.771v-1.727c0-0.35,0.05-0.606,0.15-0.769c0.099-0.162,0.258-0.243,0.475-0.243
		c0.344,0,0.514,0.297,0.514,0.893v1.846h0.775v-1.727c0-0.354,0.05-0.61,0.146-0.771c0.097-0.159,0.25-0.239,0.463-0.239
		c0.184,0,0.314,0.067,0.396,0.203c0.077,0.133,0.116,0.358,0.116,0.678v1.855h0.775v-2.064c0-0.913-0.376-1.369-1.128-1.369
		c-0.415,0-0.744,0.165-0.986,0.493c-0.22-0.33-0.519-0.493-0.894-0.493c-0.17,0-0.311,0.027-0.424,0.086
		c-0.104,0.055-0.232,0.16-0.381,0.314v-0.31h-0.769V20.158z M58.034,18.037c0.024-0.096,0.062-0.181,0.109-0.257
		c0.049-0.074,0.106-0.14,0.174-0.192c0.066-0.054,0.142-0.096,0.224-0.124c0.083-0.028,0.171-0.044,0.265-0.044
		c0.411,0,0.671,0.207,0.778,0.617H58.034z M60.379,18.488c0-0.553-0.142-0.983-0.424-1.294c-0.286-0.313-0.676-0.472-1.167-0.472
		c-0.486,0-0.879,0.162-1.174,0.484c-0.292,0.327-0.438,0.754-0.438,1.281c0,0.534,0.151,0.962,0.454,1.283
		c0.302,0.32,0.701,0.481,1.2,0.481c0.174,0,0.336-0.019,0.482-0.056c0.149-0.037,0.289-0.095,0.416-0.172
		c0.128-0.079,0.248-0.181,0.359-0.304c0.113-0.122,0.218-0.269,0.319-0.439l-0.652-0.363c-0.158,0.247-0.298,0.417-0.422,0.508
		c-0.126,0.093-0.284,0.138-0.477,0.138c-0.247,0-0.45-0.08-0.607-0.24c-0.158-0.162-0.247-0.381-0.268-0.656h2.396L60.379,18.488z
		 M55.523,19.242c-0.172,0.215-0.405,0.322-0.7,0.322c-0.296,0-0.527-0.107-0.693-0.319c-0.152-0.193-0.23-0.441-0.23-0.746
		c0-0.309,0.078-0.56,0.23-0.754c0.169-0.218,0.401-0.325,0.693-0.325c0.273,0,0.5,0.099,0.676,0.3
		c0.173,0.193,0.261,0.451,0.261,0.775C55.759,18.798,55.681,19.047,55.523,19.242 M56.5,16.815h-0.771v0.379
		c-0.279-0.312-0.629-0.47-1.05-0.47c-0.48,0-0.866,0.181-1.16,0.542c-0.273,0.34-0.409,0.755-0.409,1.241
		c0,0.501,0.146,0.919,0.439,1.253c0.29,0.33,0.664,0.494,1.119,0.494c0.399,0,0.753-0.156,1.06-0.469v0.466
		c0,0.69-0.282,1.035-0.848,1.035c-0.306,0-0.539-0.104-0.699-0.312c-0.067-0.091-0.117-0.217-0.146-0.382h-0.775
		c0.046,0.438,0.217,0.78,0.515,1.028c0.288,0.241,0.655,0.361,1.102,0.361c0.528,0,0.944-0.174,1.246-0.521
		c0.16-0.181,0.267-0.396,0.322-0.648c0.019-0.091,0.032-0.196,0.043-0.316s0.015-0.259,0.015-0.417v-3.264H56.5z M50.092,17.721
		c0.178-0.2,0.399-0.302,0.665-0.302c0.282,0,0.51,0.099,0.687,0.3c0.177,0.202,0.264,0.462,0.264,0.772
		c0,0.314-0.087,0.573-0.264,0.775c-0.175,0.197-0.407,0.297-0.693,0.297c-0.269,0-0.49-0.102-0.667-0.306
		c-0.17-0.2-0.257-0.462-0.257-0.782C49.826,18.176,49.916,17.926,50.092,17.721 M51.659,17.204
		c-0.31-0.319-0.658-0.481-1.046-0.481c-0.451,0-0.825,0.167-1.125,0.501c-0.3,0.335-0.45,0.752-0.45,1.253
		c0,0.51,0.149,0.936,0.45,1.276c0.302,0.334,0.684,0.502,1.146,0.502c0.366,0,0.707-0.149,1.025-0.447v0.351h0.775v-3.343h-0.775
		V17.204z M45.508,16.815v1.937c0,0.307,0.032,0.537,0.096,0.694c0.066,0.172,0.18,0.329,0.339,0.469
		c0.26,0.228,0.59,0.34,0.991,0.34c0.403,0,0.733-0.112,0.995-0.34c0.158-0.14,0.269-0.296,0.333-0.469
		c0.066-0.194,0.099-0.427,0.099-0.694v-1.937H47.59v1.918c0,0.555-0.218,0.832-0.655,0.832c-0.438,0-0.656-0.277-0.656-0.832
		v-1.918H45.508z M43.696,19.242c-0.172,0.215-0.406,0.322-0.7,0.322c-0.295,0-0.526-0.107-0.694-0.319
		c-0.153-0.193-0.229-0.441-0.229-0.746c0-0.309,0.076-0.56,0.229-0.754c0.169-0.218,0.401-0.325,0.694-0.325
		c0.274,0,0.5,0.099,0.676,0.3c0.173,0.193,0.261,0.451,0.261,0.775C43.933,18.798,43.854,19.047,43.696,19.242 M44.673,16.815
		h-0.771v0.379c-0.28-0.312-0.629-0.47-1.05-0.47c-0.481,0-0.867,0.181-1.16,0.542c-0.272,0.34-0.409,0.755-0.409,1.241
		c0,0.501,0.146,0.919,0.438,1.253c0.291,0.33,0.664,0.494,1.119,0.494c0.4,0,0.753-0.156,1.061-0.469v0.466
		c0,0.69-0.283,1.035-0.848,1.035c-0.307,0-0.54-0.104-0.699-0.312c-0.069-0.091-0.118-0.217-0.146-0.382h-0.775
		c0.046,0.438,0.217,0.78,0.513,1.028c0.289,0.241,0.656,0.361,1.102,0.361c0.529,0,0.944-0.174,1.246-0.521
		c0.161-0.181,0.268-0.396,0.323-0.648c0.019-0.091,0.033-0.196,0.043-0.316c0.011-0.12,0.015-0.259,0.015-0.417v-3.264H44.673z
		 M37.729,20.158h0.775v-1.611c0-0.415,0.052-0.707,0.159-0.873c0.107-0.169,0.29-0.254,0.546-0.254
		c0.236,0,0.397,0.065,0.487,0.191c0.091,0.126,0.137,0.354,0.137,0.683v1.864h0.775v-2.049c0-0.473-0.093-0.812-0.282-1.019
		c-0.217-0.244-0.521-0.368-0.909-0.368c-0.338,0-0.643,0.134-0.913,0.401v-0.309h-0.775V20.158z M34.553,17.721
		c0.179-0.2,0.4-0.302,0.666-0.302c0.281,0,0.51,0.099,0.686,0.3c0.175,0.202,0.265,0.462,0.265,0.772
		c0,0.314-0.089,0.573-0.265,0.775c-0.176,0.197-0.407,0.297-0.693,0.297c-0.268,0-0.489-0.102-0.666-0.306
		c-0.171-0.2-0.257-0.462-0.257-0.782C34.29,18.176,34.377,17.926,34.553,17.721 M36.121,17.204
		c-0.309-0.319-0.657-0.481-1.046-0.481c-0.45,0-0.825,0.167-1.125,0.501c-0.3,0.335-0.45,0.752-0.45,1.253
		c0,0.51,0.15,0.936,0.45,1.276c0.302,0.334,0.684,0.502,1.146,0.502c0.366,0,0.708-0.149,1.026-0.447v0.351h0.774v-3.343h-0.774
		V17.204z M30.83,14.861v5.297h2.356v-0.753h-1.558v-4.544H30.83z"/>
</g>
<g>
	<path fill="#00BCF1" d="M30.37,8.494c0-1.012,0.371-1.88,1.114-2.608c0.739-0.726,1.627-1.09,2.664-1.09
		c1.024,0,1.904,0.366,2.637,1.1c0.736,0.732,1.104,1.613,1.104,2.641c0,1.033-0.37,1.911-1.108,2.632
		c-0.743,0.723-1.639,1.084-2.688,1.084c-0.929,0-1.762-0.321-2.501-0.964C30.777,10.578,30.37,9.646,30.37,8.494z M31.464,8.506
		c0,0.793,0.268,1.448,0.802,1.959c0.53,0.512,1.144,0.768,1.839,0.768c0.755,0,1.392-0.26,1.91-0.781
		c0.519-0.529,0.778-1.171,0.778-1.927c0-0.767-0.256-1.409-0.769-1.927c-0.508-0.521-1.139-0.782-1.891-0.782
		c-0.749,0-1.38,0.262-1.895,0.782C31.723,7.112,31.464,7.749,31.464,8.506z"/>
	<path fill="#00BCF1" d="M40.066,9.668l-1.631-2.083h1.249l1.011,1.324l1.03-1.324h1.285l-1.677,2.083l1.943,2.454h-1.249
		l-1.333-1.695l-1.365,1.695h-1.281L40.066,9.668z"/>
	<path fill="#00BCF1" d="M45.051,8.564v3.558h-1.053V8.564h-0.372V7.585h0.372V5.834c0-0.571,0.1-0.974,0.298-1.211
		c0.273-0.329,0.67-0.493,1.193-0.493c0.186,0,0.42,0.054,0.703,0.162v1.072l-0.106-0.056c-0.227-0.115-0.413-0.172-0.559-0.172
		c-0.187,0-0.312,0.066-0.377,0.2c-0.065,0.131-0.098,0.383-0.098,0.755v1.495h1.141v0.979H45.051z"/>
	<path fill="#00BCF1" d="M46.543,9.821c0-0.655,0.234-1.213,0.703-1.672c0.469-0.459,1.04-0.689,1.714-0.689
		c0.677,0,1.251,0.232,1.724,0.694c0.465,0.462,0.698,1.03,0.698,1.705c0,0.681-0.235,1.25-0.703,1.71
		c-0.472,0.455-1.052,0.684-1.737,0.684c-0.681,0-1.251-0.232-1.71-0.698C46.772,11.096,46.543,10.518,46.543,9.821z M47.613,9.841
		c0,0.453,0.122,0.812,0.364,1.075c0.248,0.268,0.575,0.401,0.983,0.401c0.41,0,0.737-0.132,0.983-0.396
		c0.246-0.265,0.367-0.617,0.367-1.058s-0.122-0.793-0.367-1.057c-0.249-0.267-0.577-0.401-0.983-0.401
		c-0.401,0-0.725,0.134-0.975,0.401C47.738,9.074,47.613,9.418,47.613,9.841z"/>
	<path fill="#00BCF1" d="M52.272,7.585h1.047v0.406c0.192-0.202,0.363-0.34,0.512-0.415c0.152-0.078,0.332-0.117,0.541-0.117
		c0.276,0,0.565,0.09,0.867,0.27l-0.48,0.961c-0.199-0.144-0.394-0.215-0.582-0.215c-0.571,0-0.858,0.433-0.858,1.295v2.352h-1.047
		V7.585z"/>
	<path fill="#00BCF1" d="M58.965,4.255h1.052v7.867h-1.052v-0.475c-0.414,0.404-0.88,0.605-1.402,0.605
		c-0.621,0-1.136-0.227-1.546-0.681c-0.407-0.462-0.61-1.04-0.61-1.731c0-0.677,0.203-1.243,0.61-1.696
		c0.401-0.458,0.912-0.685,1.523-0.685c0.531,0,1.007,0.217,1.425,0.652V4.255z M56.478,9.841c0,0.435,0.115,0.788,0.349,1.062
		c0.24,0.276,0.539,0.414,0.904,0.414c0.388,0,0.701-0.133,0.941-0.401c0.24-0.275,0.356-0.626,0.356-1.053
		c0-0.424-0.116-0.776-0.356-1.053c-0.24-0.27-0.55-0.405-0.933-0.405c-0.361,0-0.66,0.137-0.902,0.41
		C56.597,9.092,56.478,9.434,56.478,9.841z"/>
	<path fill="#00BCF1" d="M64.199,12.122V4.931h1.509c0.725,0,1.296,0.072,1.717,0.214c0.449,0.139,0.856,0.377,1.224,0.713
		c0.74,0.676,1.111,1.567,1.111,2.668c0,1.106-0.385,2-1.158,2.683c-0.388,0.341-0.796,0.579-1.222,0.712
		c-0.396,0.134-0.96,0.2-1.69,0.2H64.199z M65.286,11.103h0.487c0.488,0,0.893-0.051,1.217-0.154
		c0.321-0.109,0.615-0.282,0.875-0.517c0.533-0.488,0.802-1.123,0.802-1.906c0-0.79-0.265-1.428-0.793-1.919
		C67.4,6.17,66.701,5.951,65.773,5.951h-0.487V11.103z"/>
	<path fill="#00BCF1" d="M70.553,5.699c0-0.183,0.065-0.34,0.199-0.474c0.133-0.134,0.295-0.201,0.481-0.201
		c0.188,0,0.351,0.067,0.484,0.201c0.133,0.129,0.201,0.289,0.201,0.479c0,0.19-0.068,0.352-0.201,0.485
		c-0.132,0.133-0.291,0.2-0.48,0.2c-0.19,0-0.353-0.067-0.485-0.2C70.619,6.055,70.553,5.891,70.553,5.699z M71.759,7.585v4.537
		h-1.046V7.585H71.759z"/>
	<path fill="#00BCF1" d="M76.381,7.782v1.393c-0.24-0.291-0.453-0.492-0.645-0.601c-0.185-0.113-0.401-0.168-0.654-0.168
		c-0.396,0-0.724,0.139-0.981,0.414c-0.263,0.277-0.395,0.624-0.395,1.04c0,0.425,0.126,0.775,0.378,1.048
		c0.254,0.272,0.58,0.41,0.974,0.41c0.25,0,0.474-0.054,0.667-0.163c0.187-0.106,0.405-0.311,0.656-0.614v1.382
		c-0.425,0.222-0.852,0.331-1.275,0.331c-0.704,0-1.288-0.227-1.76-0.681c-0.474-0.456-0.71-1.023-0.71-1.7
		c0-0.676,0.238-1.248,0.718-1.713c0.479-0.466,1.064-0.699,1.76-0.699C75.561,7.46,75.985,7.568,76.381,7.782z"/>
	<path fill="#00BCF1" d="M78.731,8.564v3.558h-1.05V8.564h-0.447V7.585h0.447V5.922h1.05v1.663h0.814v0.979H78.731z"/>
	<path fill="#00BCF1" d="M80.191,5.699c0-0.183,0.067-0.34,0.201-0.474c0.133-0.134,0.293-0.201,0.479-0.201
		c0.19,0,0.351,0.067,0.484,0.201c0.135,0.129,0.2,0.289,0.2,0.479c0,0.19-0.065,0.352-0.2,0.485c-0.13,0.133-0.292,0.2-0.479,0.2
		c-0.19,0-0.353-0.067-0.485-0.2C80.258,6.055,80.191,5.891,80.191,5.699z M81.399,7.585v4.537h-1.048V7.585H81.399z"/>
	<path fill="#00BCF1" d="M82.178,9.821c0-0.655,0.235-1.213,0.705-1.672c0.468-0.459,1.04-0.689,1.714-0.689
		c0.677,0,1.251,0.232,1.723,0.694c0.468,0.462,0.699,1.03,0.699,1.705c0,0.681-0.233,1.25-0.703,1.71
		c-0.472,0.455-1.052,0.684-1.736,0.684c-0.682,0-1.251-0.232-1.711-0.698C82.41,11.096,82.178,10.518,82.178,9.821z M83.25,9.841
		c0,0.453,0.123,0.812,0.365,1.075c0.248,0.268,0.576,0.401,0.981,0.401c0.41,0,0.738-0.132,0.982-0.396
		c0.246-0.265,0.367-0.617,0.367-1.058S85.826,9.07,85.58,8.806c-0.248-0.267-0.576-0.401-0.982-0.401
		c-0.401,0-0.726,0.134-0.974,0.401C83.375,9.074,83.25,9.418,83.25,9.841z"/>
	<path fill="#00BCF1" d="M87.669,7.585h1.052v0.419c0.367-0.362,0.781-0.544,1.24-0.544c0.529,0,0.939,0.166,1.234,0.499
		c0.255,0.283,0.382,0.743,0.382,1.384v2.78h-1.052v-2.53c0-0.446-0.063-0.755-0.187-0.926c-0.121-0.173-0.343-0.26-0.66-0.26
		c-0.349,0-0.597,0.115-0.742,0.345c-0.145,0.227-0.216,0.621-0.216,1.187v2.185h-1.052V7.585z"/>
	<path fill="#00BCF1" d="M95.792,7.585h1.052v4.537h-1.052v-0.475c-0.433,0.404-0.896,0.605-1.395,0.605
		c-0.625,0-1.144-0.227-1.557-0.681c-0.405-0.462-0.608-1.04-0.608-1.731c0-0.681,0.203-1.247,0.608-1.7
		c0.408-0.454,0.917-0.681,1.53-0.681c0.527,0,1.001,0.217,1.421,0.652V7.585z M93.304,9.841c0,0.435,0.115,0.788,0.349,1.062
		c0.24,0.276,0.541,0.414,0.902,0.414c0.39,0,0.703-0.133,0.943-0.401c0.237-0.275,0.356-0.626,0.356-1.053
		c0-0.424-0.119-0.776-0.356-1.053c-0.24-0.27-0.55-0.405-0.934-0.405c-0.358,0-0.66,0.137-0.902,0.41
		C93.423,9.092,93.304,9.434,93.304,9.841z"/>
	<path fill="#00BCF1" d="M97.883,7.585h1.048v0.406c0.192-0.202,0.362-0.34,0.513-0.415c0.151-0.078,0.332-0.117,0.539-0.117
		c0.276,0,0.565,0.09,0.867,0.27l-0.479,0.961c-0.199-0.144-0.394-0.215-0.583-0.215c-0.571,0-0.856,0.433-0.856,1.295v2.352h-1.048
		V7.585z"/>
	<path fill="#00BCF1" d="M101.197,5.699c0-0.183,0.065-0.34,0.199-0.474c0.133-0.134,0.293-0.201,0.479-0.201
		c0.188,0,0.351,0.067,0.484,0.201c0.133,0.129,0.2,0.289,0.2,0.479c0,0.19-0.067,0.352-0.2,0.485c-0.132,0.133-0.29,0.2-0.48,0.2
		s-0.351-0.067-0.483-0.2C101.262,6.055,101.197,5.891,101.197,5.699z M102.403,7.585v4.537h-1.05V7.585H102.403z"/>
	<path fill="#00BCF1" d="M107.646,10.101h-3.252c0.028,0.373,0.149,0.668,0.362,0.89c0.216,0.217,0.49,0.326,0.824,0.326
		c0.263,0,0.478-0.062,0.648-0.187c0.168-0.124,0.358-0.354,0.572-0.689l0.886,0.493c-0.138,0.234-0.281,0.434-0.433,0.599
		c-0.152,0.167-0.316,0.303-0.49,0.41c-0.175,0.107-0.361,0.186-0.562,0.235c-0.203,0.049-0.421,0.075-0.656,0.075
		c-0.679,0-1.221-0.216-1.633-0.652c-0.41-0.438-0.615-1.018-0.615-1.742c0-0.718,0.199-1.298,0.597-1.743
		c0.402-0.438,0.932-0.656,1.594-0.656c0.668,0,1.195,0.213,1.583,0.638c0.386,0.422,0.578,1.008,0.578,1.757L107.646,10.101z
		 M106.569,9.244c-0.146-0.559-0.498-0.839-1.058-0.839c-0.127,0-0.246,0.02-0.359,0.059c-0.11,0.04-0.213,0.095-0.303,0.167
		c-0.093,0.074-0.171,0.162-0.236,0.264c-0.063,0.103-0.114,0.219-0.147,0.35H106.569z"/>
	<path fill="#00BCF1" d="M111.118,8.358l-0.865,0.461c-0.138-0.275-0.308-0.414-0.509-0.414c-0.097,0-0.179,0.033-0.248,0.095
		c-0.068,0.065-0.101,0.145-0.101,0.245c0,0.174,0.201,0.346,0.604,0.517c0.556,0.238,0.932,0.458,1.124,0.661
		c0.192,0.201,0.287,0.473,0.287,0.814c0,0.437-0.162,0.803-0.484,1.097c-0.313,0.28-0.69,0.419-1.136,0.419
		c-0.761,0-1.3-0.371-1.615-1.113l0.894-0.415c0.125,0.217,0.22,0.356,0.283,0.415c0.127,0.118,0.28,0.177,0.457,0.177
		c0.354,0,0.531-0.162,0.531-0.484c0-0.187-0.138-0.361-0.41-0.523c-0.104-0.052-0.211-0.104-0.315-0.152
		c-0.107-0.05-0.214-0.102-0.322-0.154c-0.306-0.149-0.519-0.298-0.645-0.448c-0.157-0.188-0.235-0.433-0.235-0.731
		c0-0.395,0.134-0.721,0.404-0.978c0.276-0.257,0.61-0.387,1.007-0.387C110.404,7.46,110.836,7.759,111.118,8.358z"/>
</g>
</svg>
