<?xml version="1.0" encoding="UTF-8"?>
<!-- Generator: Adobe Illustrator 16.0.4, SVG Export Plug-In . SVG Version: 6.00 Build 0)  -->
<!DOCTYPE svg PUBLIC "-//W3C//DTD SVG 1.1//EN" "http://www.w3.org/Graphics/SVG/1.1/DTD/svg11.dtd">
<svg version="1.1" xmlns="http://www.w3.org/2000/svg" xmlns:xlink="http://www.w3.org/1999/xlink" x="0px" y="0px" width="380.937px" height="55.25px" viewBox="5.31 0 380.937 55.25" enable-background="new 5.31 0 380.937 55.25" xml:space="preserve">
<g id="Layer_1">
	<g id="Layer_3">
	</g>
	<g>
		<path fill="#007CCD" d="M73.389,27.896c0-3.908,1.433-7.265,4.298-10.07c2.853-2.805,6.282-4.208,10.286-4.208    c3.956,0,7.349,1.415,10.178,4.244c2.841,2.829,4.262,6.228,4.262,10.196c0,3.992-1.427,7.379-4.28,10.16    c-2.865,2.793-6.324,4.189-10.375,4.189c-3.585,0-6.804-1.241-9.657-3.722C74.959,35.941,73.389,32.344,73.389,27.896z     M77.615,27.941c0,3.066,1.031,5.588,3.093,7.563c2.05,1.978,4.417,2.965,7.103,2.965c2.913,0,5.371-1.006,7.373-3.018    c2.002-2.037,3.003-4.517,3.003-7.438c0-2.958-0.989-5.438-2.967-7.438c-1.966-2.012-4.399-3.019-7.301-3.019    c-2.89,0-5.329,1.006-7.319,3.019C78.609,22.563,77.615,25.019,77.615,27.941z"/>
		<path fill="#007CCD" d="M110.817,32.427l-6.294-8.038h4.819l3.902,5.107l3.974-5.107h4.963l-6.474,8.038l7.499,9.477h-4.819    l-5.143-6.545l-5.269,6.545h-4.945L110.817,32.427z"/>
		<path fill="#007CCD" d="M130.064,28.166v13.738H126V28.166h-1.438v-3.776H126v-6.761c0-2.206,0.384-3.765,1.151-4.676    c1.055-1.271,2.59-1.906,4.604-1.906c0.719,0,1.625,0.21,2.715,0.629v4.136l-0.414-0.216c-0.875-0.443-1.594-0.666-2.158-0.666    c-0.719,0-1.205,0.258-1.457,0.773c-0.251,0.503-0.377,1.475-0.377,2.913v5.772h4.406v3.776H130.064z"/>
		<path fill="#007CCD" d="M135.822,33.021c0-2.529,0.905-4.682,2.716-6.456c1.81-1.773,4.016-2.661,6.617-2.661    c2.613,0,4.831,0.893,6.653,2.68c1.799,1.786,2.697,3.979,2.697,6.581c0,2.626-0.905,4.825-2.715,6.601    c-1.822,1.762-4.059,2.643-6.708,2.643c-2.625,0-4.826-0.899-6.6-2.697C136.709,37.936,135.822,35.707,135.822,33.021z     M139.958,33.093c0,1.75,0.468,3.135,1.402,4.153c0.959,1.031,2.224,1.547,3.794,1.547c1.583,0,2.847-0.51,3.794-1.529    c0.947-1.018,1.42-2.379,1.42-4.082c0-1.702-0.474-3.062-1.42-4.081c-0.959-1.031-2.224-1.547-3.794-1.547    c-1.546,0-2.799,0.516-3.758,1.547C140.437,30.131,139.958,31.462,139.958,33.093z"/>
		<path fill="#007CCD" d="M157.938,24.389h4.047v1.565c0.742-0.779,1.401-1.313,1.977-1.601c0.588-0.299,1.283-0.449,2.086-0.449    c1.067,0,2.183,0.348,3.346,1.043l-1.852,3.704c-0.769-0.551-1.518-0.827-2.248-0.827c-2.206,0-3.309,1.667-3.309,5v9.08h-4.047    V24.389z"/>
		<path fill="#007CCD" d="M183.784,11.532h4.064v30.372h-4.064V40.07c-1.594,1.559-3.398,2.338-5.412,2.338    c-2.398,0-4.388-0.875-5.971-2.626c-1.57-1.785-2.355-4.016-2.355-6.688c0-2.613,0.785-4.796,2.355-6.546    c1.559-1.763,3.519-2.644,5.881-2.644c2.049,0,3.884,0.84,5.502,2.518V11.532z M174.181,33.093c0,1.678,0.449,3.045,1.349,4.1    c0.924,1.066,2.086,1.601,3.488,1.601c1.499,0,2.709-0.516,3.633-1.547c0.924-1.066,1.385-2.421,1.385-4.064    c0-1.642-0.461-2.996-1.385-4.063c-0.924-1.043-2.122-1.564-3.597-1.564c-1.391,0-2.553,0.528-3.488,1.582    C174.643,30.204,174.181,31.523,174.181,33.093z"/>
		<path fill="#007CCD" d="M203.989,41.904V14.139h5.826c2.793,0,4.999,0.276,6.617,0.828c1.738,0.54,3.314,1.457,4.729,2.751    c2.864,2.614,4.298,6.048,4.298,10.304c0,4.268-1.493,7.721-4.478,10.357c-1.499,1.319-3.069,2.236-4.712,2.752    c-1.534,0.515-3.711,0.772-6.527,0.772H203.989z M208.178,37.966h1.888c1.882,0,3.447-0.198,4.693-0.594    c1.247-0.419,2.374-1.085,3.381-1.996c2.062-1.882,3.093-4.333,3.093-7.354c0-3.045-1.019-5.515-3.057-7.409    c-1.834-1.69-4.538-2.535-8.11-2.535h-1.888V37.966z"/>
		<path fill="#007CCD" d="M228.519,17.106c0-0.707,0.257-1.318,0.773-1.834c0.515-0.516,1.132-0.773,1.852-0.773    c0.731,0,1.354,0.258,1.87,0.773c0.516,0.503,0.773,1.121,0.773,1.852s-0.258,1.355-0.773,1.87    c-0.504,0.515-1.121,0.773-1.852,0.773c-0.731,0-1.355-0.258-1.87-0.773C228.776,18.479,228.519,17.85,228.519,17.106z     M233.176,24.389v17.515h-4.046V24.389H233.176z"/>
		<path fill="#007CCD" d="M251.018,25.145v5.376c-0.924-1.127-1.75-1.899-2.482-2.319c-0.719-0.432-1.563-0.647-2.535-0.647    c-1.522,0-2.787,0.534-3.794,1.601c-1.007,1.067-1.511,2.403-1.511,4.01c0,1.643,0.485,2.991,1.457,4.047    c0.982,1.055,2.235,1.582,3.759,1.582c0.97,0,1.827-0.21,2.571-0.63c0.719-0.407,1.563-1.198,2.535-2.373v5.341    c-1.643,0.851-3.285,1.276-4.928,1.276c-2.709,0-4.975-0.875-6.797-2.626c-1.822-1.762-2.733-3.95-2.733-6.563    c0-2.612,0.923-4.819,2.769-6.617c1.847-1.798,4.112-2.697,6.798-2.697C247.853,23.904,249.483,24.317,251.018,25.145z"/>
		<path fill="#007CCD" d="M260.083,28.166v13.738h-4.047V28.166h-1.727v-3.776h1.727V17.97h4.047v6.419h3.146v3.776H260.083z"/>
		<path fill="#007CCD" d="M265.726,17.106c0-0.707,0.257-1.318,0.773-1.834c0.515-0.516,1.132-0.773,1.852-0.773    c0.731,0,1.354,0.258,1.87,0.773c0.516,0.503,0.773,1.121,0.773,1.852s-0.258,1.355-0.773,1.87    c-0.503,0.515-1.121,0.773-1.852,0.773c-0.731,0-1.355-0.258-1.87-0.773C265.983,18.479,265.726,17.85,265.726,17.106z     M270.383,24.389v17.515h-4.046V24.389H270.383z"/>
		<path fill="#007CCD" d="M273.4,33.021c0-2.529,0.905-4.682,2.716-6.456c1.81-1.773,4.016-2.661,6.617-2.661    c2.613,0,4.831,0.893,6.653,2.68c1.799,1.786,2.697,3.979,2.697,6.581c0,2.626-0.905,4.825-2.715,6.601    c-1.823,1.762-4.058,2.643-6.708,2.643c-2.625,0-4.825-0.899-6.6-2.697C274.288,37.936,273.4,35.707,273.4,33.021z     M277.536,33.093c0,1.75,0.468,3.135,1.403,4.153c0.959,1.031,2.224,1.547,3.794,1.547c1.582,0,2.848-0.51,3.795-1.529    c0.946-1.018,1.42-2.379,1.42-4.082c0-1.702-0.474-3.062-1.42-4.081c-0.959-1.031-2.225-1.547-3.795-1.547    c-1.547,0-2.8,0.516-3.758,1.547C278.016,30.131,277.536,31.462,277.536,33.093z"/>
		<path fill="#007CCD" d="M294.595,24.389h4.063v1.618c1.415-1.402,3.01-2.104,4.784-2.104c2.038,0,3.626,0.642,4.766,1.924    c0.982,1.09,1.474,2.871,1.474,5.341v10.734h-4.063v-9.77c0-1.724-0.24-2.916-0.72-3.574c-0.467-0.67-1.318-1.006-2.553-1.006    c-1.344,0-2.296,0.443-2.859,1.329c-0.552,0.874-0.828,2.4-0.828,4.58v8.44h-4.063V24.389z"/>
		<path fill="#007CCD" d="M325.945,24.389h4.063v17.515h-4.063V40.07c-1.667,1.559-3.459,2.338-5.378,2.338    c-2.421,0-4.423-0.875-6.006-2.626c-1.57-1.785-2.355-4.016-2.355-6.688c0-2.626,0.785-4.813,2.355-6.563    c1.571-1.75,3.536-2.626,5.898-2.626c2.038,0,3.866,0.84,5.485,2.518V24.389z M316.342,33.093c0,1.678,0.449,3.045,1.348,4.1    c0.924,1.066,2.087,1.601,3.488,1.601c1.499,0,2.71-0.516,3.633-1.547c0.924-1.066,1.385-2.421,1.385-4.064    c0-1.642-0.461-2.996-1.385-4.063c-0.923-1.043-2.122-1.564-3.597-1.564c-1.39,0-2.553,0.528-3.488,1.582    C316.803,30.204,316.342,31.523,316.342,33.093z"/>
		<path fill="#007CCD" d="M334.021,24.389h4.046v1.565c0.743-0.779,1.402-1.313,1.978-1.601c0.588-0.299,1.283-0.449,2.087-0.449    c1.066,0,2.182,0.348,3.345,1.043l-1.853,3.704c-0.768-0.551-1.517-0.827-2.248-0.827c-2.205,0-3.309,1.667-3.309,5v9.08h-4.046    V24.389z"/>
		<path fill="#007CCD" d="M346.809,17.106c0-0.707,0.257-1.318,0.773-1.834c0.515-0.516,1.132-0.773,1.852-0.773    c0.731,0,1.354,0.258,1.87,0.773c0.516,0.503,0.773,1.121,0.773,1.852s-0.258,1.355-0.773,1.87    c-0.504,0.515-1.121,0.773-1.853,0.773c-0.73,0-1.354-0.258-1.869-0.773C347.066,18.479,346.809,17.85,346.809,17.106z     M351.466,24.389v17.515h-4.046V24.389H351.466z"/>
		<path fill="#007CCD" d="M371.708,34.099h-12.551c0.107,1.439,0.575,2.584,1.402,3.436c0.827,0.839,1.888,1.259,3.183,1.259    c1.007,0,1.84-0.24,2.5-0.72c0.646-0.479,1.385-1.366,2.211-2.661l3.417,1.906c-0.528,0.899-1.085,1.669-1.673,2.311    c-0.587,0.642-1.217,1.169-1.888,1.582c-0.671,0.414-1.396,0.717-2.176,0.908c-0.779,0.192-1.624,0.288-2.536,0.288    c-2.613,0-4.71-0.839-6.293-2.518c-1.582-1.69-2.374-3.932-2.374-6.726c0-2.769,0.767-5.011,2.302-6.726    c1.547-1.69,3.597-2.535,6.15-2.535c2.577,0,4.615,0.821,6.113,2.464c1.487,1.63,2.229,3.89,2.229,6.779L371.708,34.099z     M367.555,30.791c-0.564-2.157-1.924-3.236-4.082-3.236c-0.492,0-0.953,0.075-1.385,0.225c-0.432,0.15-0.825,0.366-1.178,0.647    c-0.354,0.282-0.656,0.621-0.908,1.016c-0.252,0.396-0.443,0.846-0.575,1.349H367.555z"/>
		<path fill="#007CCD" d="M385.114,27.375l-3.345,1.78c-0.527-1.066-1.181-1.601-1.96-1.601c-0.372,0-0.689,0.123-0.953,0.368    c-0.264,0.246-0.396,0.56-0.396,0.942c0,0.672,0.779,1.336,2.338,1.995c2.146,0.921,3.591,1.771,4.333,2.55    c0.743,0.778,1.115,1.826,1.115,3.143c0,1.689-0.623,3.102-1.87,4.238c-1.211,1.078-2.673,1.617-4.388,1.617    c-2.938,0-5.017-1.433-6.239-4.298l3.452-1.601c0.479,0.84,0.845,1.373,1.097,1.601c0.491,0.456,1.079,0.684,1.763,0.684    c1.366,0,2.05-0.623,2.05-1.87c0-0.72-0.528-1.391-1.582-2.015c-0.408-0.203-0.815-0.401-1.224-0.593s-0.821-0.39-1.24-0.594    c-1.176-0.575-2.002-1.151-2.481-1.727c-0.611-0.73-0.917-1.673-0.917-2.823c0-1.521,0.521-2.781,1.564-3.776    c1.066-0.994,2.361-1.492,3.884-1.492C382.356,23.904,384.023,25.061,385.114,27.375z"/>
	</g>
</g>
<g id="Layer_2">
	<path fill="#007CCD" d="M60.56,27.626c0-8.239-3.445-15.738-9.217-20.84v20.84c0,10.162-6.869,18.937-18.408,18.937   c-11.537,0-18.407-8.773-18.407-18.937c0-10.163,6.87-18.936,18.407-18.936c3.527,0,6.61,0.828,9.203,2.255V1.479   C39.3,0.528,36.218,0,32.935,0C16.763,0,5.31,12.593,5.31,27.625c0,15.034,11.453,27.625,27.625,27.625   C49.106,55.252,60.56,42.661,60.56,27.626"/>
	<path fill="#007CCD" d="M42.138,27.626c0,5.082-3.434,9.466-9.203,9.466c-5.769,0-9.203-4.385-9.203-9.466   c0-5.08,3.436-9.466,9.203-9.466C38.704,18.16,42.138,22.546,42.138,27.626"/>
</g>
</svg>