<?xml version="1.0" encoding="UTF-8"?>
<!-- Generator: Adobe Illustrator 16.0.4, SVG Export Plug-In . SVG Version: 6.00 Build 0)  -->
<!DOCTYPE svg PUBLIC "-//W3C//DTD SVG 1.1//EN" "http://www.w3.org/Graphics/SVG/1.1/DTD/svg11.dtd">
<svg version="1.1" id="Layer_1" xmlns="http://www.w3.org/2000/svg" xmlns:xlink="http://www.w3.org/1999/xlink" x="0px" y="0px" width="47.917px" height="47.921px" viewBox="0 0 47.917 47.921" enable-background="new 0 0 47.917 47.921" xml:space="preserve">
<path fill="#007CCD" d="M46.601,40.235L36.055,29.69C37.891,26.718,39,23.25,39,19.5C39,8.73,30.27,0,19.5,0S0,8.73,0,19.5  C0,30.271,8.73,39,19.5,39c3.75,0,7.218-1.104,10.188-2.938l10.549,10.545c1.759,1.759,4.604,1.759,6.363,0  C48.356,44.843,48.356,41.994,46.601,40.235z M19.5,33C12.045,33,6,26.955,6,19.5C6,12.045,12.045,6,19.5,6  C26.955,6,33,12.045,33,19.5C33,26.955,26.955,33,19.5,33z"/>
</svg>